PathFileType        4      (X/Y/Z)      Flexion.trc         																																																																												
DataRate	CameraRate	NumFrames	NumMarkers	Units	OrigDataRate	OrigDataStartFrame	OrigNumFrames																																																																					
100	100	4	25	mm	100	527	1053																																																																					
Frame#	Time	AA			AI			Ant_Sh			CV7			GH			LAH			Lat_Sh			LCAJ			LPH			Post_Sh			RAH			RCAJ			RHLE			RHME			RPH			RUA			SJN			SXS			TS			TV8			centelbow			centpxt8			centijc7			centLPHRPH			ScapulaThoracicContactPt		
		X1	Y1	Z1	X2	Y2	Z2	X3	Y3	Z3	X4	Y4	Z4	X5	Y5	Z5	X6	Y6	Z6	X7	Y7	Z7	X8	Y8	Z8	X9	Y9	Z9	X10	Y10	Z10	X11	Y11	Z11	X12	Y12	Z12	X13	Y13	Z13	X14	Y14	Z14	X15	Y15	Z15	X16	Y16	Z16	X17	Y17	Z17	X18	Y18	Z18	X19	Y19	Z19	X20	Y20	Z20	X21	Y21	Z21	X22	Y22	Z22	X23	Y23	Z23	X24	Y24	Z24	X25	Y25	Z25
527	5.26	-866.9854736	1531.870483	-399.6969604	-928.6925049	1359.677612	-468.4518127	-757.5849609	1494.512695	-411.9680481	-895.8947144	1595.093872	-593.2991943	-812.996582	1495.227295	-407.329834	-694.5698242	1783.807739	-646.0355835	-810.1983643	1511.192383	-376.3595581	-846.960083	1559.125488	-782.2354736	-895.5541992	1722.956787	-651.3643799	-896.4667969	1496.303467	-400.3429871	-693.7993164	1777.71582	-549.1106567	-812.7169189	1562.1698	-432.2235718	-766.6151123	1234.060425	-286.1679993	-832.1109009	1180.35498	-370.8831482	-890.6298218	1720.54895	-535.0617676	-878.1296997	1351.13562	-334.4475708	-727.7106323	1510.389771	-610.6831055	-669.8028564	1337.760132	-615.5453491	-935.4819336	1502.952148	-504.4223938	-902.9138184	1305.53894	-603.1107788	-799.3630066	1207.207703	-328.5255737	-786.3583374	1321.649536	-609.328064	-811.8026733	1552.741821	-601.9911499	-893.0920105	1721.752869	-593.2130737	-910.3866374	1464.833415	-457.5237223
528	5.27	-866.9572754	1532.019043	-399.5982666	-927.8024902	1359.447266	-468.671936	-757.701355	1494.237427	-411.4488525	-895.5377197	1595.1875	-593.1434326	-813.137207	1495.177368	-407.0176697	-694.1186523	1783.766846	-645.7510376	-810.3980103	1511.08728	-376.1235962	-846.5963135	1559.189209	-782.0528564	-895.0978394	1722.994507	-651.1296387	-896.7321167	1496.594604	-400.3356628	-693.385437	1777.685181	-548.8521118	-812.5039673	1562.162476	-431.9349365	-770.1973877	1233.162598	-286.3475342	-836.3095703	1180.496582	-371.4509583	-890.1513672	1720.543335	-534.7802734	-880.3309326	1351.750732	-334.7104797	-727.4473267	1510.346313	-610.4564819	-669.7163696	1337.603027	-615.4470825	-935.1046753	1502.971558	-504.4020081	-902.8458862	1305.594482	-603.1110229	-803.253479	1206.82959	-328.8992462	-786.2811279	1321.598755	-609.2790527	-811.4925232	1552.766907	-601.7999573	-892.6246033	1721.768921	-592.9549561	-909.9548136	1464.812622	-457.5574036
529	5.28	-866.9705811	1532.186279	-399.4744568	-927.7280884	1359.421875	-468.6355896	-757.8617554	1493.949463	-410.970459	-895.1750488	1595.241943	-593.0125122	-813.3331909	1495.127563	-406.7219238	-693.6254883	1783.778442	-645.4522095	-810.6304321	1511.042847	-375.8469543	-846.1785889	1559.307861	-781.8325195	-894.6516113	1723.058716	-650.9462891	-896.9887085	1496.904297	-400.3148193	-692.9195557	1777.695557	-548.5870361	-812.3387451	1562.205322	-431.6931458	-773.8798828	1232.161255	-286.5543823	-840.1425781	1180.57666	-371.8759155	-889.7196655	1720.533813	-534.5097046	-882.2518921	1352.453735	-335.0325928	-727.1755981	1510.287598	-610.1990967	-669.5994873	1337.46228	-615.3592529	-934.7681274	1503.03125	-504.352478	-902.7368774	1305.694824	-603.0637207	-807.0112305	1206.368958	-329.2151489	-786.1681824	1321.578552	-609.2114868	-811.1753235	1552.764771	-601.6058044	-892.1856384	1721.796265	-592.7279968	-909.8222656	1464.879801	-457.4875081
530	5.29	-867.0534668	1532.516113	-399.4612732	-927.708374	1359.407227	-468.6338501	-758.0449219	1493.746582	-410.533844	-894.8346558	1595.352661	-592.8306885	-813.5917969	1495.144775	-406.4305725	-693.1784668	1783.786987	-645.1714478	-810.9074707	1511.038086	-375.5075684	-845.8546753	1559.375366	-781.652771	-894.1848755	1723.091309	-650.7576904	-897.2925415	1497.251587	-400.2475586	-692.5411987	1777.659912	-548.4078979	-812.1848755	1562.275757	-431.4567566	-777.4639282	1231.368164	-286.7091675	-843.7877197	1180.734253	-372.5263672	-889.2732544	1720.535034	-534.3410034	-884.1237183	1352.946167	-335.2480164	-726.8664551	1510.203979	-609.9290771	-669.5001831	1337.274658	-615.2265015	-934.4407959	1503.080322	-504.2882996	-902.6447754	1305.786377	-603.0351563	-810.625824	1206.051208	-329.6177673	-786.0724792	1321.530518	-609.1308289	-810.8505554	1552.77832	-601.3798828	-891.7290649	1721.813171	-592.5493469	-909.7342122	1465.001221	-457.461141
